<svg width="25" height="21" viewBox="0 0 25 21" fill="none" xmlns="http://www.w3.org/2000/svg">
<path d="M13.0163 20.9688C5.27213 20.9688 0.0377502 16.9746 0.0377502 11.0273C0.0377502 4.92383 5.55533 0.763672 13.7487 0.763672C20.0475 0.763672 24.2858 3.47852 24.2858 7.58008C24.2858 11.7207 18.612 11.9746 18.612 13.5664C18.612 14.7285 20.2428 15.1387 20.2428 17.1309C20.2428 19.4258 17.3522 20.9688 13.0163 20.9688ZM13.0163 18.8789C16.112 18.8789 18.1432 18.0781 18.1432 16.8477C18.1432 15.6367 16.5026 15.1777 16.5026 13.4883C16.5026 10.5293 22.2057 10.8906 22.2057 7.58008C22.2057 4.75781 18.8463 2.84375 13.7487 2.84375C6.7272 2.84375 2.11783 6.11523 2.11783 11.0273C2.11783 15.7344 6.45377 18.8789 13.0163 18.8789ZM13.778 7.69727C12.8795 7.69727 12.1374 6.97461 12.1374 6.07617C12.1374 5.16797 12.8795 4.44531 13.778 4.44531C14.6862 4.44531 15.4088 5.16797 15.4088 6.07617C15.4088 6.97461 14.6862 7.69727 13.778 7.69727ZM8.90494 9.25C7.78189 9.25 6.87369 8.36133 6.87369 7.22852C6.87369 6.11523 7.78189 5.22656 8.90494 5.22656C10.0085 5.22656 10.9264 6.11523 10.9264 7.22852C10.9264 8.36133 10.0182 9.25 8.90494 9.25ZM18.1725 8.3125C17.4303 8.3125 16.8346 7.72656 16.8346 6.99414C16.8346 6.26172 17.4303 5.66602 18.1725 5.66602C18.8952 5.66602 19.4811 6.26172 19.4811 6.99414C19.4811 7.73633 18.8952 8.3125 18.1725 8.3125ZM5.39908 12.3359C4.52017 12.3359 3.78775 11.5938 3.78775 10.7051C3.78775 9.81641 4.51041 9.10352 5.39908 9.10352C6.29752 9.10352 7.01041 9.81641 7.01041 10.7051C7.01041 11.5938 6.28775 12.3359 5.39908 12.3359ZM12.1764 16.6523C10.653 16.6523 9.41275 15.4121 9.41275 13.8887C9.41275 12.375 10.653 11.125 12.1764 11.125C13.6999 11.125 14.9401 12.375 14.9401 13.8887C14.9401 15.4316 13.7194 16.6523 12.1764 16.6523ZM12.1764 15.3633C12.9967 15.3633 13.651 14.709 13.651 13.8789C13.651 12.9414 12.9284 12.4141 12.1471 12.4238C11.3952 12.4336 10.7018 12.9707 10.7018 13.8789C10.7018 14.709 11.3561 15.3633 12.1764 15.3633Z" fill="#8A8FFF"/>
</svg>
