<svg width="22" height="22" viewBox="0 0 22 22" fill="none" xmlns="http://www.w3.org/2000/svg">
<path d="M3.14648 0.451172H16.4277C18.5176 0.451172 19.6113 1.55469 19.6113 3.66406V13.8984H9.91406C8.49805 13.8984 7.80469 14.6504 7.80469 16.0664V18.8789C7.80469 20.1777 7.0625 20.9102 6.00781 20.9102C4.89453 20.9102 4.12305 20.1582 4.12305 18.8105V2.38477C4.12305 1.39844 3.86914 0.841797 3.14648 0.451172ZM0.539062 5.31445V3.03906C0.539062 2.42383 1.02734 1.98438 1.62305 1.98438C2.20898 1.98438 2.6875 2.42383 2.6875 3.03906V6.42773H1.68164C0.998047 6.42773 0.539062 5.98828 0.539062 5.31445ZM8.00977 5.63672C8.00977 5.98828 8.27344 6.27148 8.64453 6.27148H15.2754C15.627 6.27148 15.9004 5.98828 15.9004 5.63672C15.9004 5.29492 15.627 5.03125 15.2754 5.03125H8.64453C8.27344 5.03125 8.00977 5.29492 8.00977 5.63672ZM8.00977 8.98633C8.00977 9.32812 8.27344 9.60156 8.64453 9.60156H12.1602C12.5215 9.60156 12.7852 9.32812 12.7852 8.98633C12.7852 8.63477 12.5215 8.36133 12.1602 8.36133H8.64453C8.27344 8.36133 8.00977 8.63477 8.00977 8.98633ZM8.25391 21.4473C9.04492 20.6562 9.23047 19.6797 9.23047 18.498V16.4473C9.23047 15.7734 9.68945 15.334 10.373 15.334H20.5684C21.252 15.334 21.7109 15.7734 21.7109 16.4473V18.332C21.7109 20.334 20.4219 21.4473 18.4883 21.4473H8.25391Z" fill="#8A8FFF"/>
</svg>
