<svg width="22" height="22" viewBox="0 0 22 22" fill="none" xmlns="http://www.w3.org/2000/svg">
<path d="M9.94434 21.3398C9.34863 21.3398 8.90918 20.9883 8.78223 20.4121L8.29395 18.3516C7.96191 18.2344 7.64941 18.1074 7.35645 17.9707L5.55957 19.084C5.07129 19.3867 4.49512 19.3379 4.09473 18.9375L2.84473 17.6777C2.43457 17.2773 2.37598 16.6816 2.69824 16.1934L3.80176 14.4062C3.66504 14.1133 3.53809 13.8008 3.44043 13.498L1.36035 13.0098C0.78418 12.8828 0.442383 12.4434 0.442383 11.8574V10.0996C0.442383 9.52344 0.78418 9.07422 1.36035 8.94727L3.4209 8.44922C3.53809 8.10742 3.66504 7.80469 3.78223 7.54102L2.67871 5.71484C2.36621 5.2168 2.40527 4.66016 2.8252 4.25L4.09473 2.99023C4.51465 2.60938 5.02246 2.55078 5.52051 2.82422L7.34668 3.94727C7.63965 3.80078 7.96191 3.67383 8.29395 3.56641L8.78223 1.48633C8.90918 0.910156 9.34863 0.558594 9.94434 0.558594H11.7314C12.3174 0.558594 12.7568 0.910156 12.8838 1.48633L13.3818 3.57617C13.7139 3.69336 14.0264 3.82031 14.3096 3.95703L16.1455 2.82422C16.6436 2.55078 17.1611 2.61914 17.5713 2.99023L18.8408 4.25C19.2607 4.66016 19.2998 5.2168 18.9873 5.71484L17.8838 7.54102C18.001 7.80469 18.1377 8.10742 18.2451 8.44922L20.3057 8.94727C20.8818 9.07422 21.2236 9.52344 21.2236 10.0996V11.8574C21.2236 12.4434 20.8818 12.8828 20.3057 13.0098L18.2256 13.498C18.1279 13.8008 18.001 14.1133 17.8643 14.4062L18.9678 16.1934C19.29 16.6816 19.2314 17.2773 18.8311 17.6777L17.5713 18.9375C17.1709 19.3379 16.5947 19.3867 16.1162 19.084L14.3096 17.9707C14.0166 18.1074 13.7041 18.2344 13.3721 18.3516L12.8838 20.4121C12.7568 20.9883 12.3174 21.3398 11.7314 21.3398H9.94434ZM10.833 14.3672C12.7178 14.3672 14.251 12.8242 14.251 10.9395C14.251 9.07422 12.7178 7.54102 10.833 7.54102C8.95801 7.54102 7.4248 9.07422 7.4248 10.9395C7.4248 12.8242 8.95801 14.3672 10.833 14.3672Z" fill="#3B3E7F"/>
</svg>
